<?xml version="1.0" encoding="utf-8"?>
<!-- Generator: Adobe Illustrator 24.1.1, SVG Export Plug-In . SVG Version: 6.00 Build 0)  -->
<svg version="1.1" id="Warstwa_1" xmlns="http://www.w3.org/2000/svg" xmlns:xlink="http://www.w3.org/1999/xlink" x="0px" y="0px"
	 viewBox="0 0 460.48 123.43" style="enable-background:new 0 0 460.48 123.43;" xml:space="preserve">
<style type="text/css">
	.st0{fill:#D1D3D4;}
	.st1{fill:url(#SVGID_1_);}
	.st2{fill:url(#SVGID_2_);}
</style>
<g>
	<path class="st0" d="M112.01,91.05c0,11.46-9.29,20.75-20.75,20.75c-7.68,0-14.38-4.17-17.97-10.37c-4.46-7.73-15.6-7.73-20.06,0
		c-3.59,6.2-10.29,10.37-17.97,10.37c-11.46,0-20.75-9.29-20.75-20.75c0-7.68,4.17-14.39,10.38-17.97c0.02-0.02,0.05-0.04,0.08-0.05
		c7.61-4.47,7.61-15.49,0-19.96c-0.02-0.02-0.05-0.03-0.08-0.05c-6.21-3.58-10.38-10.29-10.38-17.97c0-11.46,9.29-20.75,20.75-20.75
		s20.75,9.29,20.75,20.75c0,7.68-4.17,14.38-10.37,17.97c-7.73,4.46-7.73,15.6,0,20.06c3.15,1.82,5.77,4.45,7.59,7.6
		c0.02,0.03,0.03,0.06,0.05,0.08c4.47,7.61,15.49,7.61,19.96,0c0.01-0.03,0.03-0.06,0.05-0.08c3.58-6.21,10.29-10.38,17.97-10.38
		C102.72,70.3,112.01,79.59,112.01,91.05z"/>
</g>
<g>
	
		<linearGradient id="SVGID_1_" gradientUnits="userSpaceOnUse" x1="109.233" y1="80.5733" x2="73.287" y2="101.3267" gradientTransform="matrix(1 0 0 -1 0 126)">
		<stop  offset="0" style="stop-color:#399AAF"/>
		<stop  offset="0.3852" style="stop-color:#3A98B0"/>
		<stop  offset="0.6449" style="stop-color:#3D94B2"/>
		<stop  offset="0.867" style="stop-color:#428CB4"/>
		<stop  offset="1" style="stop-color:#4685B6"/>
	</linearGradient>
	<circle class="st1" cx="91.26" cy="35.05" r="20.75"/>
</g>
<g>
	<path class="st0" d="M139.98,32.62h7.46v51.5h24.68v6.26h-32.14V32.62z"/>
</g>
<g>
	<path class="st0" d="M188.56,37.24c0.09,2.57-1.8,4.63-4.8,4.63c-2.66,0-4.54-2.06-4.54-4.63c0-2.66,1.97-4.71,4.71-4.71
		C186.76,32.53,188.56,34.59,188.56,37.24z M180.17,90.37V48.9h7.54v41.48h-7.54V90.37z"/>
</g>
<g>
	<path class="st0" d="M203.13,48.9l8.14,23.31c1.37,3.77,2.49,7.2,3.34,10.63h0.26c0.94-3.43,2.14-6.86,3.51-10.63l8.06-23.31h7.88
		l-16.28,41.48h-7.2L195.08,48.9H203.13z"/>
</g>
<g>
	<path class="st0" d="M278.11,69.29c0,15.34-10.63,22.02-20.65,22.02c-11.23,0-19.88-8.23-19.88-21.34
		c0-13.88,9.08-22.02,20.57-22.02C270.05,47.96,278.11,56.61,278.11,69.29z M245.2,69.72c0,9.08,5.23,15.94,12.6,15.94
		c7.2,0,12.6-6.77,12.6-16.11c0-7.03-3.51-15.94-12.43-15.94S245.2,61.84,245.2,69.72z"/>
</g>
<g>
	<g>
		
			<linearGradient id="SVGID_2_" gradientUnits="userSpaceOnUse" x1="287.87" y1="64.5" x2="445.97" y2="64.5" gradientTransform="matrix(1 0 0 -1 0 126)">
			<stop  offset="0" style="stop-color:#399AAF"/>
			<stop  offset="0.3852" style="stop-color:#3A98B0"/>
			<stop  offset="0.6449" style="stop-color:#3D94B2"/>
			<stop  offset="0.867" style="stop-color:#428CB4"/>
			<stop  offset="1" style="stop-color:#4685B6"/>
		</linearGradient>
		<path class="st2" d="M295.33,32.62h-7.46v57.76H320v-6.26h-24.68L295.33,32.62L295.33,32.62z M328.32,90.37h7.46V32.62h-7.46
			V90.37z M385.13,56.78c0,9,0.17,16.02,0.86,23.74l-0.17,0.09c-2.74-5.91-6.08-12-10.37-18.77l-18.51-29.22h-8.14v57.76h7.03V65.69
			c0-9.6-0.17-16.54-0.6-23.82l0.26-0.09c2.91,6.26,6.77,12.85,10.8,19.28l18.34,29.31h7.54V32.62h-7.03L385.13,56.78L385.13,56.78z
			 M423.44,57.13l20.91-24.51h-9.25L417.44,54.3c-1.46,1.88-3,3.94-4.54,6.17h-0.26V32.62h-7.46v57.76h7.46V68.35l5.48-6.34
			l19.02,28.36h8.83L423.44,57.13z"/>
	</g>
</g>
</svg>
